<svg version="1.1" id="Layer_1" xmlns="http://www.w3.org/2000/svg" xmlns:xlink="http://www.w3.org/1999/xlink" x="0px" y="0px"
	 width="100%" viewBox="0 0 380 373" enable-background="new 0 0 380 373" xml:space="preserve">
<path fill="#A60101" opacity="1.000000" stroke="none" 
	d="
M1.000000,339.000000 
	C1.000000,238.311905 1.000000,137.623810 1.361856,36.344601 
	C3.922120,27.873362 7.752627,21.059462 13.359461,14.931980 
	C19.681562,8.022812 27.832230,4.621997 36.000000,1.000000 
	C139.021439,1.000000 242.042862,1.000000 345.655396,1.361849 
	C354.124207,3.921736 360.965790,7.713027 367.054138,13.366148 
	C374.149902,19.954670 377.903778,28.210686 381.000000,37.000000 
	C381.000000,137.021439 381.000000,237.042862 380.639343,337.679321 
	C377.015869,344.869720 374.477692,351.951874 370.318176,357.900269 
	C364.275909,366.541046 354.858215,370.845367 345.000000,374.000000 
	C242.311905,374.000000 139.623810,374.000000 36.344604,373.638153 
	C27.873375,371.077881 21.059448,367.247375 14.931984,361.640503 
	C8.022833,355.318390 4.621987,347.167755 1.000000,339.000000 
M214.500000,363.000000 
	C252.657608,363.000000 290.815277,363.026398 328.972748,362.956635 
	C332.552643,362.950104 336.143341,362.432953 339.708649,361.989197 
	C357.868835,359.728912 369.858093,344.366791 369.900177,326.323273 
	C370.115875,233.845901 370.053284,141.367615 369.859314,48.890125 
	C369.848419,43.685635 368.682434,38.086971 366.540222,33.357456 
	C359.956390,18.821829 347.829529,12.074058 332.206818,12.055337 
	C238.895905,11.943515 145.584824,11.990001 52.273815,12.041699 
	C49.027477,12.043498 45.781631,12.661977 42.535297,12.990464 
	C24.792595,14.785799 12.019319,30.741516 12.013327,49.407612 
	C11.983911,141.052368 11.992103,232.697128 12.040420,324.341858 
	C12.041780,326.921906 12.737557,329.493927 12.949451,332.082764 
	C14.433738,350.217041 31.220877,363.118713 50.539143,363.058807 
	C104.858963,362.890320 159.179657,363.000000 214.500000,363.000000 
z"/>
<path fill="#FFFFFF" opacity="1.000000" stroke="none" 
	d="
M345.468658,374.000000 
	C354.858215,370.845367 364.275909,366.541046 370.318176,357.900269 
	C374.477692,351.951874 377.015869,344.869720 380.639343,338.147156 
	C381.000000,349.926605 381.000000,361.853210 381.000000,374.000000 
	C369.313354,374.000000 357.625336,374.000000 345.468658,374.000000 
z"/>
<path fill="#FFFFFF" opacity="1.000000" stroke="none" 
	d="
M381.000000,36.531342 
	C377.903778,28.210686 374.149902,19.954670 367.054138,13.366148 
	C360.965790,7.713027 354.124207,3.921736 346.123230,1.361849 
	C357.594299,1.000000 369.188599,1.000000 381.000000,1.000000 
	C381.000000,12.686666 381.000000,24.374674 381.000000,36.531342 
z"/>
<path fill="#FFFFFF" opacity="1.000000" stroke="none" 
	d="
M1.000000,339.468658 
	C4.621987,347.167755 8.022833,355.318390 14.931984,361.640503 
	C21.059448,367.247375 27.873375,371.077881 35.876755,373.638153 
	C24.406744,374.000000 12.813488,374.000000 1.000000,374.000000 
	C1.000000,362.646729 1.000000,351.292023 1.000000,339.468658 
z"/>
<path fill="#FFFFFF" opacity="1.000000" stroke="none" 
	d="
M35.531342,1.000000 
	C27.832230,4.621997 19.681562,8.022812 13.359461,14.931980 
	C7.752627,21.059462 3.922120,27.873362 1.361856,35.876747 
	C1.000000,24.406746 1.000000,12.813491 1.000000,1.000000 
	C12.353279,1.000000 23.707981,1.000000 35.531342,1.000000 
z"/>
<path fill="#FFFFFF" opacity="1.000000" stroke="none" 
	d="
M214.000000,363.000000 
	C159.179657,363.000000 104.858963,362.890320 50.539143,363.058807 
	C31.220877,363.118713 14.433738,350.217041 12.949451,332.082764 
	C12.737557,329.493927 12.041780,326.921906 12.040420,324.341858 
	C11.992103,232.697128 11.983911,141.052368 12.013327,49.407612 
	C12.019319,30.741516 24.792595,14.785799 42.535297,12.990464 
	C45.781631,12.661977 49.027477,12.043498 52.273815,12.041699 
	C145.584824,11.990001 238.895905,11.943515 332.206818,12.055337 
	C347.829529,12.074058 359.956390,18.821829 366.540222,33.357456 
	C368.682434,38.086971 369.848419,43.685635 369.859314,48.890125 
	C370.053284,141.367615 370.115875,233.845901 369.900177,326.323273 
	C369.858093,344.366791 357.868835,359.728912 339.708649,361.989197 
	C336.143341,362.432953 332.552643,362.950104 328.972748,362.956635 
	C290.815277,363.026398 252.657608,363.000000 214.000000,363.000000 
M212.500000,19.980915 
	C158.347687,19.986347 104.193863,20.219151 50.043945,19.861086 
	C33.420975,19.751167 19.968731,34.915112 19.976831,50.495602 
	C20.024134,141.471436 19.995892,232.447327 20.003609,323.423187 
	C20.005102,341.021210 34.002239,354.991669 51.537861,354.994049 
	C144.513199,355.006653 237.488525,355.006805 330.463867,354.993958 
	C347.997223,354.991547 361.995026,341.021912 361.996490,323.421417 
	C362.004028,232.945419 362.009857,142.469406 361.957794,51.993427 
	C361.956024,48.922882 361.670837,45.769279 360.939087,42.796833 
	C357.830902,30.170391 345.250946,19.787260 332.467468,19.885414 
	C292.813751,20.189890 253.156113,19.986944 212.500000,19.980915 
z"/>
<path fill="#A60101" opacity="1.000000" stroke="none" 
	d="
M213.000000,19.980915 
	C253.156113,19.986944 292.813751,20.189890 332.467468,19.885414 
	C345.250946,19.787260 357.830902,30.170391 360.939087,42.796833 
	C361.670837,45.769279 361.956024,48.922882 361.957794,51.993427 
	C362.009857,142.469406 362.004028,232.945419 361.996490,323.421417 
	C361.995026,341.021912 347.997223,354.991547 330.463867,354.993958 
	C237.488525,355.006805 144.513199,355.006653 51.537861,354.994049 
	C34.002239,354.991669 20.005102,341.021210 20.003609,323.423187 
	C19.995892,232.447327 20.024134,141.471436 19.976831,50.495602 
	C19.968731,34.915112 33.420975,19.751167 50.043945,19.861086 
	C104.193863,20.219151 158.347687,19.986347 213.000000,19.980915 
M25.002522,327.054260 
	C27.688530,342.845306 40.591625,350.275208 55.650593,350.206940 
	C147.136215,349.792084 238.624893,349.901581 330.111969,350.099792 
	C344.838470,350.131683 357.116913,337.825317 357.088715,323.292297 
	C356.912872,232.638367 356.991180,141.983902 357.007965,51.329617 
	C357.011078,34.542835 345.243164,24.200443 330.568512,24.152954 
	C237.582169,23.852032 144.593994,23.863476 51.607521,24.140442 
	C36.859161,24.184368 24.998335,34.502129 24.998798,51.170700 
	C25.001352,142.824844 25.000134,234.479004 25.002522,327.054260 
z"/>
<path fill="#FFFFFF" opacity="1.000000" stroke="none" 
	d="
M25.001366,326.593689 
	C25.000134,234.479004 25.001352,142.824844 24.998798,51.170700 
	C24.998335,34.502129 36.859161,24.184368 51.607521,24.140442 
	C144.593994,23.863476 237.582169,23.852032 330.568512,24.152954 
	C345.243164,24.200443 357.011078,34.542835 357.007965,51.329617 
	C356.991180,141.983902 356.912872,232.638367 357.088715,323.292297 
	C357.116913,337.825317 344.838470,350.131683 330.111969,350.099792 
	C238.624893,349.901581 147.136215,349.792084 55.650593,350.206940 
	C40.591625,350.275208 27.688530,342.845306 25.001366,326.593689 
M290.861053,336.968079 
	C295.583160,337.977661 300.342377,339.973053 305.019806,339.796844 
	C315.579468,339.398987 322.454926,332.721039 328.257294,324.424347 
	C331.905365,319.208008 330.639954,313.999817 330.080475,308.476593 
	C329.123444,299.028107 328.956512,289.497559 327.933075,280.058380 
	C326.546509,267.270142 324.719147,254.527817 322.894379,241.792511 
	C322.747101,240.764664 321.160187,239.943085 320.242279,239.025650 
	C319.496582,239.946564 318.135284,240.860779 318.125153,241.789719 
	C318.098877,244.202835 318.934998,246.620468 318.952393,249.039734 
	C319.047119,262.203857 319.629547,275.409332 318.791809,288.520599 
	C318.164978,298.330566 315.985687,308.094421 313.869812,317.741150 
	C311.768799,327.320129 305.809692,330.047882 296.784729,326.340179 
	C290.875244,323.912415 287.663330,316.218323 289.015472,308.782288 
	C289.975037,303.505096 290.514404,298.136322 290.966553,292.785217 
	C291.818756,282.700073 288.403809,274.982910 278.432526,271.039154 
	C275.683960,269.952087 273.587341,268.154114 274.013641,264.769409 
	C274.419983,261.543121 274.681549,258.268372 275.451904,255.123947 
	C277.520325,246.681152 279.651703,238.243652 282.169159,229.928513 
	C282.754852,227.993851 284.668884,225.677368 286.497284,225.036957 
	C294.970276,222.069153 303.659546,219.724808 312.195190,216.925003 
	C314.009003,216.330032 315.363983,214.367813 317.175049,213.726746 
	C321.346893,212.249985 325.770660,211.464706 329.899261,209.892242 
	C333.427032,208.548584 334.955505,205.128632 333.807953,201.811905 
	C329.619141,189.704895 313.643433,179.671829 300.039337,190.527786 
	C297.191498,192.800339 297.095184,195.344406 299.590302,198.146927 
	C302.852570,201.811172 305.928894,205.640991 309.542694,209.944336 
	C299.122284,208.147125 291.670929,214.096603 284.362549,216.160172 
	C281.125427,211.112076 278.611176,205.681000 274.724091,201.537964 
	C270.512695,197.049271 264.925140,194.032501 257.629791,195.315201 
	C258.160675,196.897003 258.194092,198.780777 259.114197,199.455750 
	C266.479706,204.858871 266.667572,212.566864 265.857971,220.419113 
	C265.651794,222.418915 264.132477,224.870972 262.462952,226.027466 
	C256.227264,230.347015 249.521957,233.988708 243.286942,238.309143 
	C235.400070,243.774200 227.800476,249.653824 220.384186,255.127869 
	C221.327484,248.098328 222.430130,240.647690 227.995407,234.782486 
	C230.468048,232.176620 233.227875,229.569626 234.738525,226.425598 
	C235.667862,224.491409 235.191055,219.787872 234.121948,219.355804 
	C229.880341,217.641693 224.326324,215.074249 220.760117,216.521896 
	C207.537552,221.889267 194.890137,228.683533 182.111343,235.110168 
	C181.311539,235.512375 181.236694,237.356094 180.323044,239.956711 
	C186.998062,238.846008 192.487991,238.266357 197.797241,236.955154 
	C203.101990,235.645050 208.225937,233.602844 213.935715,231.713989 
	C209.411972,241.635880 206.633926,250.954498 208.915833,261.188446 
	C209.322449,263.012115 209.344452,265.561890 208.368073,266.948059 
	C202.666565,275.042389 196.775711,283.017029 190.639572,290.787903 
	C183.358505,300.008728 177.347504,309.838531 174.314072,321.290131 
	C172.230896,329.154419 178.333618,337.040771 185.997864,335.934326 
	C201.293396,333.726288 214.627579,327.183899 224.783691,315.485840 
	C231.323639,307.952972 234.471283,298.886505 229.946640,288.980133 
	C227.620590,283.887451 224.513657,279.147491 221.696411,274.284729 
	C220.225906,271.746460 220.207916,269.748718 222.737976,267.673798 
	C228.067230,263.303253 232.943604,258.356812 238.429291,254.206421 
	C246.134445,248.376801 254.224731,243.056229 262.886688,237.003342 
	C262.886688,239.867432 262.976624,241.197052 262.871887,242.511154 
	C262.274261,250.008011 261.040344,257.519684 261.274811,264.987000 
	C261.377258,268.249908 264.259766,271.543793 266.230865,274.596954 
	C268.266083,277.749390 271.352539,280.340363 272.882080,283.679474 
	C276.975037,292.614502 275.442688,302.338013 276.138580,311.780365 
	C276.892944,322.015900 279.826477,331.549042 290.861053,336.968079 
M149.036026,199.848129 
	C150.054092,195.396255 152.191986,191.007034 149.749146,186.364777 
	C149.457764,185.811020 149.045151,185.156799 149.114166,184.602066 
	C150.303848,175.039154 144.585922,168.490402 138.249207,163.258682 
	C127.293694,154.213638 113.916290,155.150833 100.758385,156.643677 
	C95.550751,157.234497 90.361511,157.987396 83.874306,158.835007 
	C88.146935,153.018555 91.578667,147.851990 95.569839,143.161484 
	C97.127068,141.331406 100.054100,140.735291 102.165405,139.295792 
	C109.371986,134.382309 114.377426,127.623444 117.015663,119.414726 
	C120.510735,108.539993 117.935066,95.739639 102.659027,97.224083 
	C95.270241,97.942085 88.086090,100.947868 80.884018,103.161041 
	C80.040939,103.420128 79.337692,105.203049 79.245956,106.334381 
	C79.206978,106.815147 80.992577,108.014488 81.811241,107.900261 
	C86.615318,107.229919 91.417366,106.437416 96.145515,105.359093 
	C101.452568,104.148735 104.338333,106.657295 102.941750,111.941910 
	C101.685768,116.694542 99.933891,121.316124 98.721512,125.016479 
	C93.756203,123.436348 89.652679,122.189392 85.590187,120.820610 
	C81.738388,119.522827 78.890411,121.201187 78.372421,124.668358 
	C78.075722,126.654312 80.362167,129.026184 81.485649,131.224304 
	C82.265091,132.961273 82.595131,135.412323 81.913116,137.538788 
	C78.765846,147.351486 73.587578,155.799911 64.825134,161.732376 
	C63.806396,162.422104 62.628429,164.161911 62.831982,165.143799 
	C63.611900,168.905975 64.551872,172.739487 66.219368,176.162918 
	C66.909065,177.578903 70.019096,179.183243 71.279305,178.709457 
	C75.906319,176.969894 79.993797,173.431747 84.696335,172.331558 
	C94.776215,169.973312 105.060265,167.919464 115.359688,167.238861 
	C124.403763,166.641220 129.974197,171.306519 132.338501,178.823868 
	C136.658905,192.560745 135.802246,205.633667 126.847534,217.466446 
	C120.270187,226.157822 111.268990,230.214890 100.525070,229.900558 
	C93.502388,229.695099 86.512077,228.551361 79.492073,228.033997 
	C73.570404,227.597565 67.985069,226.573517 63.700001,221.945984 
	C60.091934,218.049576 60.249420,213.405334 62.213539,209.236328 
	C63.412022,206.692444 66.177086,204.345795 68.803085,203.120209 
	C75.711815,199.895828 81.457809,204.612488 87.457718,206.369293 
	C85.316376,211.594711 83.319176,216.468399 81.321976,221.342072 
	C81.908455,221.844757 82.494926,222.347443 83.081406,222.850143 
	C85.409782,221.724869 87.766823,220.654770 90.060806,219.463303 
	C95.482071,216.647552 100.938080,213.886505 106.228592,210.840302 
	C107.460953,210.130722 109.146667,207.831696 108.817375,207.187714 
	C107.169228,203.964615 105.596596,199.652023 102.759743,198.278244 
	C92.982437,193.543472 82.263542,193.038086 71.740967,195.196136 
	C67.271614,196.112732 61.917374,198.029160 59.233566,201.333511 
	C51.420013,210.953659 55.820526,227.675339 66.919609,232.920258 
	C71.991348,235.316910 77.335220,237.197144 82.673889,238.951920 
	C87.546097,240.553360 92.563438,242.669525 97.543182,242.741791 
	C103.561584,242.829132 109.575424,240.677429 115.648796,240.075928 
	C127.381294,238.913925 134.455475,230.667847 140.441452,222.362427 
	C144.847946,216.248489 146.257736,207.974762 149.036026,199.848129 
M302.101288,150.030609 
	C294.852173,148.896255 287.603027,147.761902 280.295349,146.618393 
	C286.103821,134.797928 276.489532,126.886597 265.116302,129.907913 
	C253.367737,133.028992 243.671097,139.463043 234.488449,147.004120 
	C227.752502,152.535873 220.980698,158.023956 213.754974,163.914581 
	C214.982010,155.086304 213.169220,148.276077 204.124420,145.683609 
	C202.757263,145.291733 201.130478,145.805649 199.623795,145.900589 
	C199.781708,147.393066 199.375458,149.651993 200.190414,150.251862 
	C204.975098,153.773788 202.212891,158.056519 201.475418,161.895325 
	C200.849152,165.155212 199.209671,168.233032 197.917816,171.349670 
	C195.739136,176.605820 198.256989,184.172546 203.192474,186.595871 
	C203.931900,186.958923 205.213974,186.895950 205.939667,186.487534 
	C208.721420,184.921906 211.702011,183.489731 214.026901,181.369980 
	C224.560944,171.765396 234.598434,161.593735 245.432785,152.350739 
	C250.661331,147.890167 257.255005,145.029755 264.097290,140.924820 
	C263.749573,148.530823 263.201996,155.136551 269.418304,158.712082 
	C274.407593,161.581802 280.037201,163.338211 285.997986,165.847717 
	C282.560455,169.177933 278.492554,172.969681 274.639557,176.968521 
	C273.797424,177.842529 273.722107,179.455353 273.293640,180.727921 
	C274.635132,181.150696 276.023712,182.017105 277.305908,181.881042 
	C278.821136,181.720276 280.406616,180.919342 281.680817,180.004745 
	C288.942657,174.792221 296.387939,169.784531 303.251251,164.081894 
	C309.920715,158.540329 309.550690,155.455231 302.101288,150.030609 
M88.478531,74.000587 
	C87.570442,74.328156 86.685310,74.757736 85.750832,74.968033 
	C70.813843,78.329376 55.878162,81.697487 40.922298,84.973259 
	C37.913582,85.632248 36.522350,88.323120 38.955612,90.137169 
	C42.329067,92.652130 46.408497,95.406456 50.352585,95.683716 
	C55.875744,96.071968 61.664295,94.711029 67.138573,93.312584 
	C76.263084,90.981667 85.247864,88.090851 94.255264,85.318130 
	C102.996071,82.627487 111.535088,79.006683 120.448730,77.226295 
	C130.139816,75.290627 140.166351,75.056412 150.029663,73.931671 
	C151.204315,73.797714 152.875854,72.967941 153.242294,72.037437 
	C153.736176,70.783325 153.688370,68.779709 152.966049,67.710487 
	C151.923645,66.167488 150.082443,65.154945 148.554901,63.950550 
	C143.537262,59.994358 138.159821,62.308754 132.820969,62.966087 
	C117.846199,64.809814 103.363899,68.534813 88.478531,74.000587 
M77.541458,52.054047 
	C75.909630,52.719627 74.240158,53.306278 72.652107,54.063648 
	C62.624275,58.846146 62.677711,58.808155 54.582844,51.196106 
	C53.411514,50.094639 51.531197,49.747120 49.978973,49.050705 
	C49.319439,50.593914 48.196190,52.102253 48.077084,53.686096 
	C47.401649,62.668003 56.035320,72.583160 65.190506,72.801170 
	C68.196259,72.872749 72.116173,71.782082 74.098801,69.744568 
	C78.072563,65.660812 81.523209,61.171360 85.798759,57.203125 
	C90.479836,52.858524 95.505257,50.009434 101.265656,47.980919 
	C103.876328,47.061573 106.595528,46.450443 109.265495,45.699493 
	C109.515167,46.264771 109.764839,46.830048 110.014511,47.395325 
	C104.342850,51.436012 98.614235,55.400509 93.037910,59.568748 
	C91.568062,60.667446 90.568726,62.395611 89.353333,63.834724 
	C89.748718,64.317726 90.144096,64.800728 90.539482,65.283722 
	C92.204247,64.878601 93.985779,64.728333 95.515114,64.027634 
	C106.723930,58.892063 117.923630,53.732498 129.038208,48.397148 
	C134.250748,45.894955 134.561752,42.994228 130.525436,39.013992 
	C126.636223,35.178806 121.878128,35.598694 117.179565,36.402363 
	C103.128387,38.805756 90.708191,45.369358 77.541458,52.054047 
M75.532867,135.026611 
	C74.477303,132.373520 74.144707,128.294952 72.234818,127.326317 
	C65.692177,124.008041 63.103798,117.630768 58.880470,112.525848 
	C58.247478,111.760727 56.897003,111.039818 56.026012,111.184837 
	C55.248955,111.314224 54.271835,112.582657 54.073921,113.497856 
	C51.225784,126.668556 55.860806,136.434738 67.892509,141.852478 
	C70.207748,142.895035 73.225174,142.378143 75.918671,142.580658 
	C75.930855,140.298645 75.943039,138.016647 75.532867,135.026611 
M209.086227,212.535660 
	C210.402054,213.011505 211.881195,214.131897 213.004379,213.847366 
	C217.041748,212.824493 221.016266,211.470825 224.888245,209.925674 
	C226.125519,209.431961 227.945694,207.787247 227.803253,206.961929 
	C227.447357,204.900177 226.559021,201.789062 225.102158,201.262253 
	C219.680710,199.301834 214.657349,195.189987 208.052475,197.849442 
	C205.416534,198.910828 200.796814,196.894409 200.422501,201.009369 
	C200.262604,202.767151 204.200531,205.083160 206.519760,206.820648 
	C208.283051,208.141632 211.249557,208.518112 209.086227,212.535660 
z"/>
<path fill="#A60101" opacity="1.000000" stroke="none" 
	d="
M290.498840,336.811035 
	C279.826477,331.549042 276.892944,322.015900 276.138580,311.780365 
	C275.442688,302.338013 276.975037,292.614502 272.882080,283.679474 
	C271.352539,280.340363 268.266083,277.749390 266.230865,274.596954 
	C264.259766,271.543793 261.377258,268.249908 261.274811,264.987000 
	C261.040344,257.519684 262.274261,250.008011 262.871887,242.511154 
	C262.976624,241.197052 262.886688,239.867432 262.886688,237.003342 
	C254.224731,243.056229 246.134445,248.376801 238.429291,254.206421 
	C232.943604,258.356812 228.067230,263.303253 222.737976,267.673798 
	C220.207916,269.748718 220.225906,271.746460 221.696411,274.284729 
	C224.513657,279.147491 227.620590,283.887451 229.946640,288.980133 
	C234.471283,298.886505 231.323639,307.952972 224.783691,315.485840 
	C214.627579,327.183899 201.293396,333.726288 185.997864,335.934326 
	C178.333618,337.040771 172.230896,329.154419 174.314072,321.290131 
	C177.347504,309.838531 183.358505,300.008728 190.639572,290.787903 
	C196.775711,283.017029 202.666565,275.042389 208.368073,266.948059 
	C209.344452,265.561890 209.322449,263.012115 208.915833,261.188446 
	C206.633926,250.954498 209.411972,241.635880 213.935715,231.713989 
	C208.225937,233.602844 203.101990,235.645050 197.797241,236.955154 
	C192.487991,238.266357 186.998062,238.846008 180.323044,239.956711 
	C181.236694,237.356094 181.311539,235.512375 182.111343,235.110168 
	C194.890137,228.683533 207.537552,221.889267 220.760117,216.521896 
	C224.326324,215.074249 229.880341,217.641693 234.121948,219.355804 
	C235.191055,219.787872 235.667862,224.491409 234.738525,226.425598 
	C233.227875,229.569626 230.468048,232.176620 227.995407,234.782486 
	C222.430130,240.647690 221.327484,248.098328 220.384186,255.127869 
	C227.800476,249.653824 235.400070,243.774200 243.286942,238.309143 
	C249.521957,233.988708 256.227264,230.347015 262.462952,226.027466 
	C264.132477,224.870972 265.651794,222.418915 265.857971,220.419113 
	C266.667572,212.566864 266.479706,204.858871 259.114197,199.455750 
	C258.194092,198.780777 258.160675,196.897003 257.629791,195.315201 
	C264.925140,194.032501 270.512695,197.049271 274.724091,201.537964 
	C278.611176,205.681000 281.125427,211.112076 284.362549,216.160172 
	C291.670929,214.096603 299.122284,208.147125 309.542694,209.944336 
	C305.928894,205.640991 302.852570,201.811172 299.590302,198.146927 
	C297.095184,195.344406 297.191498,192.800339 300.039337,190.527786 
	C313.643433,179.671829 329.619141,189.704895 333.807953,201.811905 
	C334.955505,205.128632 333.427032,208.548584 329.899261,209.892242 
	C325.770660,211.464706 321.346893,212.249985 317.175049,213.726746 
	C315.363983,214.367813 314.009003,216.330032 312.195190,216.925003 
	C303.659546,219.724808 294.970276,222.069153 286.497284,225.036957 
	C284.668884,225.677368 282.754852,227.993851 282.169159,229.928513 
	C279.651703,238.243652 277.520325,246.681152 275.451904,255.123947 
	C274.681549,258.268372 274.419983,261.543121 274.013641,264.769409 
	C273.587341,268.154114 275.683960,269.952087 278.432526,271.039154 
	C288.403809,274.982910 291.818756,282.700073 290.966553,292.785217 
	C290.514404,298.136322 289.975037,303.505096 289.015472,308.782288 
	C287.663330,316.218323 290.875244,323.912415 296.784729,326.340179 
	C305.809692,330.047882 311.768799,327.320129 313.869812,317.741150 
	C315.985687,308.094421 318.164978,298.330566 318.791809,288.520599 
	C319.629547,275.409332 319.047119,262.203857 318.952393,249.039734 
	C318.934998,246.620468 318.098877,244.202835 318.125153,241.789719 
	C318.135284,240.860779 319.496582,239.946564 320.242279,239.025650 
	C321.160187,239.943085 322.747101,240.764664 322.894379,241.792511 
	C324.719147,254.527817 326.546509,267.270142 327.933075,280.058380 
	C328.956512,289.497559 329.123444,299.028107 330.080475,308.476593 
	C330.639954,313.999817 331.905365,319.208008 328.257294,324.424347 
	C322.454926,332.721039 315.579468,339.398987 305.019806,339.796844 
	C300.342377,339.973053 295.583160,337.977661 290.498840,336.811035 
M207.961639,282.315308 
	C206.213364,284.469788 204.254791,286.487823 202.753067,288.802246 
	C196.052521,299.129089 187.714371,308.581696 185.761581,321.441803 
	C185.017365,326.342865 186.282516,327.958923 190.791092,326.653229 
	C198.793518,324.335724 206.050827,320.600159 212.154312,314.894867 
	C217.957169,309.470581 221.903976,302.520081 220.576523,294.756683 
	C219.521683,288.587555 215.602005,282.908325 214.024704,279.395538 
	C212.282852,280.031982 210.166153,280.805328 207.961639,282.315308 
M316.999268,206.581680 
	C317.451263,203.305145 313.899017,198.004425 310.251617,196.512970 
	C311.624542,199.972794 312.971252,203.443359 314.382965,206.887283 
	C314.966125,208.309967 315.699310,209.609634 316.999268,206.581680 
z"/>
<path fill="#A60101" opacity="1.000000" stroke="none" 
	d="
M149.019455,200.255783 
	C146.257736,207.974762 144.847946,216.248489 140.441452,222.362427 
	C134.455475,230.667847 127.381294,238.913925 115.648796,240.075928 
	C109.575424,240.677429 103.561584,242.829132 97.543182,242.741791 
	C92.563438,242.669525 87.546097,240.553360 82.673889,238.951920 
	C77.335220,237.197144 71.991348,235.316910 66.919609,232.920258 
	C55.820526,227.675339 51.420013,210.953659 59.233566,201.333511 
	C61.917374,198.029160 67.271614,196.112732 71.740967,195.196136 
	C82.263542,193.038086 92.982437,193.543472 102.759743,198.278244 
	C105.596596,199.652023 107.169228,203.964615 108.817375,207.187714 
	C109.146667,207.831696 107.460953,210.130722 106.228592,210.840302 
	C100.938080,213.886505 95.482071,216.647552 90.060806,219.463303 
	C87.766823,220.654770 85.409782,221.724869 83.081406,222.850143 
	C82.494926,222.347443 81.908455,221.844757 81.321976,221.342072 
	C83.319176,216.468399 85.316376,211.594711 87.457718,206.369293 
	C81.457809,204.612488 75.711815,199.895828 68.803085,203.120209 
	C66.177086,204.345795 63.412022,206.692444 62.213539,209.236328 
	C60.249420,213.405334 60.091934,218.049576 63.700001,221.945984 
	C67.985069,226.573517 73.570404,227.597565 79.492073,228.033997 
	C86.512077,228.551361 93.502388,229.695099 100.525070,229.900558 
	C111.268990,230.214890 120.270187,226.157822 126.847534,217.466446 
	C135.802246,205.633667 136.658905,192.560745 132.338501,178.823868 
	C129.974197,171.306519 124.403763,166.641220 115.359688,167.238861 
	C105.060265,167.919464 94.776215,169.973312 84.696335,172.331558 
	C79.993797,173.431747 75.906319,176.969894 71.279305,178.709457 
	C70.019096,179.183243 66.909065,177.578903 66.219368,176.162918 
	C64.551872,172.739487 63.611900,168.905975 62.831982,165.143799 
	C62.628429,164.161911 63.806396,162.422104 64.825134,161.732376 
	C73.587578,155.799911 78.765846,147.351486 81.913116,137.538788 
	C82.595131,135.412323 82.265091,132.961273 81.485649,131.224304 
	C80.362167,129.026184 78.075722,126.654312 78.372421,124.668358 
	C78.890411,121.201187 81.738388,119.522827 85.590187,120.820610 
	C89.652679,122.189392 93.756203,123.436348 98.721512,125.016479 
	C99.933891,121.316124 101.685768,116.694542 102.941750,111.941910 
	C104.338333,106.657295 101.452568,104.148735 96.145515,105.359093 
	C91.417366,106.437416 86.615318,107.229919 81.811241,107.900261 
	C80.992577,108.014488 79.206978,106.815147 79.245956,106.334381 
	C79.337692,105.203049 80.040939,103.420128 80.884018,103.161041 
	C88.086090,100.947868 95.270241,97.942085 102.659027,97.224083 
	C117.935066,95.739639 120.510735,108.539993 117.015663,119.414726 
	C114.377426,127.623444 109.371986,134.382309 102.165405,139.295792 
	C100.054100,140.735291 97.127068,141.331406 95.569839,143.161484 
	C91.578667,147.851990 88.146935,153.018555 83.874306,158.835007 
	C90.361511,157.987396 95.550751,157.234497 100.758385,156.643677 
	C113.916290,155.150833 127.293694,154.213638 138.249207,163.258682 
	C144.585922,168.490402 150.303848,175.039154 149.114166,184.602066 
	C149.045151,185.156799 149.457764,185.811020 149.749146,186.364777 
	C152.191986,191.007034 150.054092,195.396255 149.019455,200.255783 
z"/>
<path fill="#A60101" opacity="1.000000" stroke="none" 
	d="
M302.475281,150.183258 
	C309.550690,155.455231 309.920715,158.540329 303.251251,164.081894 
	C296.387939,169.784531 288.942657,174.792221 281.680817,180.004745 
	C280.406616,180.919342 278.821136,181.720276 277.305908,181.881042 
	C276.023712,182.017105 274.635132,181.150696 273.293640,180.727905 
	C273.722107,179.455353 273.797424,177.842529 274.639557,176.968521 
	C278.492554,172.969681 282.560455,169.177933 285.997986,165.847717 
	C280.037201,163.338211 274.407593,161.581802 269.418304,158.712082 
	C263.201996,155.136551 263.749573,148.530823 264.097290,140.924820 
	C257.255005,145.029755 250.661331,147.890167 245.432785,152.350739 
	C234.598434,161.593735 224.560944,171.765396 214.026901,181.369980 
	C211.702011,183.489731 208.721420,184.921906 205.939667,186.487534 
	C205.213974,186.895950 203.931900,186.958923 203.192474,186.595871 
	C198.256989,184.172546 195.739136,176.605820 197.917816,171.349670 
	C199.209671,168.233032 200.849152,165.155212 201.475418,161.895325 
	C202.212891,158.056519 204.975098,153.773788 200.190414,150.251862 
	C199.375458,149.651993 199.781708,147.393066 199.623795,145.900589 
	C201.130478,145.805649 202.757263,145.291733 204.124420,145.683609 
	C213.169220,148.276077 214.982010,155.086304 213.754974,163.914581 
	C220.980698,158.023956 227.752502,152.535873 234.488449,147.004120 
	C243.671097,139.463043 253.367737,133.028992 265.116302,129.907913 
	C276.489532,126.886597 286.103821,134.797928 280.295349,146.618393 
	C287.603027,147.761902 294.852173,148.896255 302.475281,150.183258 
z"/>
<path fill="#A60101" opacity="1.000000" stroke="none" 
	d="
M88.889175,73.975998 
	C103.363899,68.534813 117.846199,64.809814 132.820969,62.966087 
	C138.159821,62.308754 143.537262,59.994358 148.554901,63.950550 
	C150.082443,65.154945 151.923645,66.167488 152.966049,67.710487 
	C153.688370,68.779709 153.736176,70.783325 153.242294,72.037437 
	C152.875854,72.967941 151.204315,73.797714 150.029663,73.931671 
	C140.166351,75.056412 130.139816,75.290627 120.448730,77.226295 
	C111.535088,79.006683 102.996071,82.627487 94.255264,85.318130 
	C85.247864,88.090851 76.263084,90.981667 67.138573,93.312584 
	C61.664295,94.711029 55.875744,96.071968 50.352585,95.683716 
	C46.408497,95.406456 42.329067,92.652130 38.955612,90.137169 
	C36.522350,88.323120 37.913582,85.632248 40.922298,84.973259 
	C55.878162,81.697487 70.813843,78.329376 85.750832,74.968033 
	C86.685310,74.757736 87.570442,74.328156 88.889175,73.975998 
z"/>
<path fill="#A60101" opacity="1.000000" stroke="none" 
	d="
M77.927612,52.006905 
	C90.708191,45.369358 103.128387,38.805756 117.179565,36.402363 
	C121.878128,35.598694 126.636223,35.178806 130.525436,39.013992 
	C134.561752,42.994228 134.250748,45.894955 129.038208,48.397148 
	C117.923630,53.732498 106.723930,58.892063 95.515114,64.027634 
	C93.985779,64.728333 92.204247,64.878601 90.539482,65.283722 
	C90.144096,64.800728 89.748718,64.317726 89.353333,63.834724 
	C90.568726,62.395611 91.568062,60.667446 93.037910,59.568748 
	C98.614235,55.400509 104.342850,51.436012 110.014511,47.395325 
	C109.764839,46.830048 109.515167,46.264771 109.265495,45.699493 
	C106.595528,46.450443 103.876328,47.061573 101.265656,47.980919 
	C95.505257,50.009434 90.479836,52.858524 85.798759,57.203125 
	C81.523209,61.171360 78.072563,65.660812 74.098801,69.744568 
	C72.116173,71.782082 68.196259,72.872749 65.190506,72.801170 
	C56.035320,72.583160 47.401649,62.668003 48.077084,53.686096 
	C48.196190,52.102253 49.319439,50.593914 49.978973,49.050705 
	C51.531197,49.747120 53.411514,50.094639 54.582844,51.196106 
	C62.677711,58.808155 62.624275,58.846146 72.652107,54.063648 
	C74.240158,53.306278 75.909630,52.719627 77.927612,52.006905 
z"/>
<path fill="#A60101" opacity="1.000000" stroke="none" 
	d="
M75.744041,135.380615 
	C75.943039,138.016647 75.930855,140.298645 75.918671,142.580658 
	C73.225174,142.378143 70.207748,142.895035 67.892509,141.852478 
	C55.860806,136.434738 51.225784,126.668556 54.073921,113.497856 
	C54.271835,112.582657 55.248955,111.314224 56.026012,111.184837 
	C56.897003,111.039818 58.247478,111.760727 58.880470,112.525848 
	C63.103798,117.630768 65.692177,124.008041 72.234818,127.326317 
	C74.144707,128.294952 74.477303,132.373520 75.744041,135.380615 
z"/>
<path fill="#A60101" opacity="1.000000" stroke="none" 
	d="
M209.066681,212.145630 
	C211.249557,208.518112 208.283051,208.141632 206.519760,206.820648 
	C204.200531,205.083160 200.262604,202.767151 200.422501,201.009369 
	C200.796814,196.894409 205.416534,198.910828 208.052475,197.849442 
	C214.657349,195.189987 219.680710,199.301834 225.102158,201.262253 
	C226.559021,201.789062 227.447357,204.900177 227.803253,206.961929 
	C227.945694,207.787247 226.125519,209.431961 224.888245,209.925674 
	C221.016266,211.470825 217.041748,212.824493 213.004379,213.847366 
	C211.881195,214.131897 210.402054,213.011505 209.066681,212.145630 
z"/>
<path fill="#FFFFFF" opacity="1.000000" stroke="none" 
	d="
M208.005554,281.947021 
	C210.166153,280.805328 212.282852,280.031982 214.024704,279.395538 
	C215.602005,282.908325 219.521683,288.587555 220.576523,294.756683 
	C221.903976,302.520081 217.957169,309.470581 212.154312,314.894867 
	C206.050827,320.600159 198.793518,324.335724 190.791092,326.653229 
	C186.282516,327.958923 185.017365,326.342865 185.761581,321.441803 
	C187.714371,308.581696 196.052521,299.129089 202.753067,288.802246 
	C204.254791,286.487823 206.213364,284.469788 208.005554,281.947021 
z"/>
<path fill="#FFFEFE" opacity="1.000000" stroke="none" 
	d="
M316.978210,206.946991 
	C315.699310,209.609634 314.966125,208.309967 314.382965,206.887283 
	C312.971252,203.443359 311.624542,199.972794 310.251678,196.512939 
	C313.899017,198.004425 317.451263,203.305145 316.978210,206.946991 
z"/>
</svg>